<svg width="256" height="256" viewBox="0 0 256 256" fill="none" xmlns="http://www.w3.org/2000/svg">
  <rect width="256" height="256" rx="60" fill="#EF3340"/>
  <path transform="translate(128 128) scale(2) translate(-299 -334.4)" d="M 298.59375 389.5 C 291.800781 389.5 285.828125 388.148438 280.671875 385.453125 C 275.523438 382.757813 271.5 378.90625 268.59375 373.90625 C 265.695313 368.90625 264.25 363.054688 264.25 356.34375 C 264.25 349.84375 265.722656 344.574219 268.671875 340.53125 C 271.617188 336.480469 274.992188 334.453125 278.796875 334.453125 C 279.898438 334.453125 281.023438 334.605469 282.171875 334.90625 C 283.328125 335.199219 284.40625 335.746094 285.40625 336.546875 C 284.101563 339.046875 282.875 341.902344 281.71875 345.109375 C 280.570313 348.308594 280 351.953125 280 356.046875 C 280 364.453125 281.671875 370.808594 285.015625 375.109375 C 288.367188 379.402344 292.894531 381.546875 298.59375 381.546875 C 304.800781 381.546875 309.53125 379.402344 312.78125 375.109375 C 316.03125 370.808594 317.65625 364.507813 317.65625 356.203125 C 317.65625 349.703125 316.476563 344.03125 314.125 339.1875 C 311.769531 334.335938 308.945313 329.65625 305.65625 325.15625 C 302.351563 320.554688 299.222656 315.5 296.265625 310 C 293.316406 304.5 291.84375 298.554688 291.84375 292.15625 C 291.84375 287.855469 292.894531 284.632813 295 282.484375 C 297.101563 280.328125 299.503906 279.25 302.203125 279.25 C 305.003906 279.25 307.203125 280.054688 308.796875 281.65625 C 308.097656 282.855469 307.546875 284.304688 307.140625 286 C 306.742188 287.699219 306.546875 289.398438 306.546875 291.09375 C 306.546875 296.398438 307.546875 301.101563 309.546875 305.203125 C 311.546875 309.296875 314.195313 313.546875 317.5 317.953125 C 319.894531 321.046875 322.34375 324.449219 324.84375 328.15625 C 327.34375 331.855469 329.441406 335.980469 331.140625 340.53125 C 332.847656 345.074219 333.703125 350.246094 333.703125 356.046875 C 333.703125 362.953125 332.175781 368.90625 329.125 373.90625 C 326.070313 378.90625 321.921875 382.757813 316.671875 385.453125 C 311.421875 388.148438 305.394531 389.5 298.59375 389.5 Z" fill="white"/>
</svg>